<svg viewBox="0 0 16 16" version="1.1" xmlns="http://www.w3.org/2000/svg" xmlns:xlink="http://www.w3.org/1999/xlink">
    <!-- Generator: Sketch 39.1 (31720) - http://www.bohemiancoding.com/sketch -->
    <desc>Created with Sketch.</desc>
    <defs></defs>
    <g id="content-header" stroke="none" stroke-width="1" fill="none" fill-rule="evenodd" transform="translate(1.000000, 1.000000)">
        <polygon id="Shape" fill="#FFFFFF" points="0 0 14 0 14 14 0 14"></polygon>
        <path d="M0,0 L0,14 L14,14 L14,0 L0,0 L0,0 Z M1,1 L13,1 L13,13 L1,13 L1,1 L1,1 Z" id="Shape" fill="#999999"></path>
    </g>
    <path d="M12.856339,11.7136101 C12.6035004,12.0794592 12.1005228,12.1713809 11.7345596,11.9176552 L8.42067627,9.6251256 C8.18608772,9.4633216 8.06464917,9.19946968 8.07369813,8.93432505 C7.64682554,9.39196917 7.08609427,9.69943099 6.45799008,9.81356954 C5.68652199,9.95422128 4.90737369,9.78600443 4.26431463,9.34109729 C3.62087537,8.89617748 3.1890474,8.22699811 3.0484717,7.4562144 C2.90781996,6.68497444 3.07563125,5.9056994 3.5211087,5.26212073 C4.44116221,3.93333057 6.27133312,3.60021736 7.60103579,4.51968788 C8.8079058,5.35510702 9.19360183,6.94018295 8.56625805,8.2195587 C8.81139105,8.11657293 9.10206033,8.13669863 9.33787822,8.29957989 L12.6526994,10.5921095 C13.0186626,10.8458352 13.1101534,11.3477356 12.8563643,11.7135974 L12.856339,11.7136101 Z M7.94343875,6.56449908 C7.84563649,6.02697319 7.54472693,5.56036883 7.0961191,5.25022021 C6.16937392,4.60860594 4.89277369,4.84060908 4.25060179,5.76705009 C3.60925367,6.69468242 3.84156097,7.97045887 4.76850893,8.6111733 C5.69535549,9.25278757 6.97175295,9.02091117 7.61378544,8.09408995 C7.92436497,7.64553281 8.04146914,7.1022531 7.94342608,6.56451176 L7.94343875,6.56449908 Z" id="Shape" stroke="none" fill="#D9411E" fill-rule="evenodd"></path>
</svg>
