<svg xmlns="http://www.w3.org/2000/svg" viewBox="0 0 16 16">
  <path fill="currentColor" opacity=".35" d="M2 2h8a1 1 0 0 1 1 1v4.2a5.19 5.19 0 0 0-1-.16V4H3v8h3.33c.28.38.61.72.99 1H2a1 1 0 0 1-1-1V3a1 1 0 0 1 1-1Z"/>
  <path fill="currentColor" d="M4 5h4.5v1H4V5Zm0 2h2.7a5.31 5.31 0 0 0-.58 1H4V7Z"/>
  <path fill="currentColor" fill-rule="evenodd" d="M10 8.25a2.75 2.75 0 1 0 0 5.5 2.75 2.75 0 0 0 0-5.5ZM8.5 11a1.5 1.5 0 1 1 3 0 1.5 1.5 0 0 1-3 0Z" clip-rule="evenodd"/>
  <path fill="currentColor" d="m12.05 12.85 2.1 2.1a.6.6 0 0 0 .85-.85L12.9 12l-.85.85Z"/>
</svg>
