<svg width="16px" height="16px" viewBox="0 1 16 16" version="1.1" xmlns="http://www.w3.org/2000/svg" xmlns:xlink="http://www.w3.org/1999/xlink">
    <!-- Generator: Sketch 39.1 (31720) - http://www.bohemiancoding.com/sketch -->
    <desc>Created with Sketch.</desc>
    <defs></defs>
    <path d="M5.94766939,16 C6.55779958,15.9494567 7.13970422,15.8002882 7.67730148,15.5670997 L4.50062053,15.1901581 L5.94766939,16 L5.94766939,16 Z" id="Path" stroke="none" fill="#FFFFFF" fill-rule="evenodd"></path>
    <path d="M8.73357877,13.4838157 L4.64212552,14.2963289 L8.17325609,14.99763 C8.31013414,14.6208 8.51413648,14.0711215 8.73357877,13.4838157 Z" id="Combined-Shape" stroke="none" fill="#FFFFFF" fill-rule="evenodd"></path>
    <path d="M9.8906232,10.3860971 L4.50060424,13.4024669 L8.96222522,12.8730502 C9.41878282,11.6555545 9.866,10.474 9.866,10.474 C9.87732701,10.4439487 9.88548791,10.4145654 9.8906232,10.3860971 Z" id="Combined-Shape" stroke="none" fill="#FFFFFF" fill-rule="evenodd"></path>
    <path d="M7.19166303,9.24256719 L4.08972628,12.5961367 L9.67112364,10.021101 C9.63184562,10.009955 9.58799289,10.004 9.54,10.004 L7.503,10.004 C7.225,10.004 7.054,9.789 7.12,9.527 L7.19166303,9.24256719 Z" id="Combined-Shape" stroke="none" fill="#FFFFFF" fill-rule="evenodd"></path>
    <path d="M7.43712193,8.26833305 L3.44984453,11.9562714 L6.60666906,5.11405069 C7.1345394,5.22300285 7.63458804,5.40770831 8.09526561,5.65614005 L7.43712193,8.26833305 Z" id="Combined-Shape" stroke="none" fill="#FFFFFF" fill-rule="evenodd"></path>
    <path d="M5.48710159,5 C4.73682864,5 4.02200161,5.15048127 3.37018955,5.42206959 L2.64354721,11.5453607 L6.27462572,5.05694329 C6.01731421,5.02002041 5.75458739,5 5.48710159,5 L5.48710159,5 Z" id="Path" stroke="none" fill="#FFFFFF" fill-rule="evenodd"></path>
    <path d="M2.89268644,5.648612 C2.11517259,6.06444572 1.44957607,6.66111953 0.951035018,7.38267474 L1.74971797,11.403823 L2.89268644,5.648612 L2.89268644,5.648612 Z" id="Path" stroke="none" fill="#FFFFFF" fill-rule="evenodd"></path>
    <path d="M0.464243688,8.24506203 C0.216450141,8.79365404 0.0557945078,9.38950734 0,10.0160477 L0.855790415,11.5454756 L0.464243688,8.24506203 L0.464243688,8.24506203 Z" id="Path" stroke="none" fill="#FFFFFF" fill-rule="evenodd"></path>
    <path d="M10.01,14.707 L15.82,6.707 C15.982,6.484 15.962,6.037 15.536,6.037 L13.234,6.037 C12.964,6.037 12.841,5.837 12.972,5.591 L15.018,1.717 C15.165,1.477 15.161,1.001 14.718,1.001 L10.514,1.001 C10.248,1.001 9.962,1.214 9.896,1.478 L8.12,8.527 C8.054,8.789 8.225,9.004 8.503,9.004 L10.54,9.004 C10.825,9.004 10.964,9.214 10.866,9.474 C10.866,9.474 9,14.404 9,14.5 C9,14.776 9.224,15 9.5,15 C9.644,15 9.775,14.94 9.866,14.84 C9.919,14.81 9.968,14.766 10.011,14.707 L10.01,14.707 Z" id="lightning-green" stroke="none" fill="#79A548" fill-rule="evenodd"></path>
</svg>