<svg xmlns="http://www.w3.org/2000/svg" viewBox="0 0 64 64">
  <g fill="currentColor" transform="matrix(2.8 0 0 2.72 8.8 20)">
    <path d="M.403 2.391C.225 2.788.11 3.219.07 3.673l.615 1.108L.403 2.391Z"/>
    <path d="M2.15.511C1.59.812 1.112 1.244.753 1.766l.575 2.912L2.15.511Z"/>
    <path opacity=".55" d="M4.82.124 2.55 5.078l4.211-3.922A3.954 3.954 0 0 0 4.82.124Z"/>
    <path d="M6.233 7.337a3.98 3.98 0 0 0 1.252-1.38l-4.078.815 2.826.565Z"/>
    <path d="M4.346 8.006a3.904 3.904 0 0 0 1.244-.314l-2.284-.273 1.04.587Z"/>
    <path d="M4.015.041c.192 0 .381.015.566.041L1.97 4.78 2.493.347A3.91 3.91 0 0 1 4.015.041Zm3.928 3.471c.022.17.034.343.034.519 0 .559-.115 1.091-.321 1.574l-4.35.52 4.637-2.613Z"/>
    <path d="M6.904 1.302 3.01 5.541l4.894-2.273a3.983 3.983 0 0 0-1-1.966Z"/>
  </g>
  <path fill="none" stroke="currentColor" stroke-linecap="round" stroke-width="4" opacity=".45" d="M37 24h10M37 40h10M47 24v28"/>
  <circle cx="50" cy="24" r="6" fill="currentColor"/>
  <circle cx="50" cy="40" r="6" fill="currentColor" opacity=".45"/>
  <circle cx="50" cy="52" r="6" fill="currentColor"/>
</svg>
