<svg width="100%" height="100%" viewBox="0 0 64 64" version="1.1" xmlns="http://www.w3.org/2000/svg" xmlns:xlink="http://www.w3.org/1999/xlink" xml:space="preserve" xmlns:serif="http://www.serif.com/" style="fill-rule:evenodd;clip-rule:evenodd;stroke-linejoin:round;stroke-miterlimit:2;">
    <g transform="matrix(0.49231,0,0,0.49231,7.384248,7.384593)">
        <path d="M66.387,21.113L71.93,21.113C75.764,21.113 78.887,24.236 78.887,28.07L78.887,33.613L71.114,33.613L71.114,28.833L62.999,28.839C62.836,28.865 62.672,28.887 62.5,28.887C62.345,28.887 62.189,28.866 62.041,28.848L28.833,28.886L28.871,62.363L28.887,62.5L28.879,62.623L28.878,62.646L28.886,71.163L33.613,71.134L33.614,78.886L28.071,78.886C24.237,78.886 21.114,75.763 21.114,71.929L21.114,66.386L21.113,58.633L21.113,28.07C21.113,24.236 24.236,21.113 28.07,21.113L58.614,21.113L66.387,21.113Z" fill="var(--icon-color-accent, #ff8700)"/>
    </g>
    <g transform="matrix(0.49231,0,0,0.49231,7.384248,7.384593)">
        <path d="M80.56,33.613L84.43,33.613C88.264,33.613 91.387,36.736 91.387,40.57L91.387,84.429C91.387,88.263 88.264,91.386 84.43,91.386L40.571,91.386C36.737,91.386 33.614,88.263 33.614,84.429L33.614,81.813L33.614,78.886L33.613,71.134L33.613,68.43L33.613,40.57C33.613,36.737 36.736,33.613 40.57,33.613L69.221,33.613L80.56,33.613ZM41.387,75L41.379,75.123L41.378,75.146L41.386,83.667L83.667,83.614L83.615,41.387L41.333,41.387L41.371,74.863L41.387,75Z" fill="currentColor"/>
    </g>
    <g transform="matrix(0.49231,0,0,0.49231,7.384248,7.384593)" opacity=".4">
        <path d="M21.113,58.633L21.114,66.386L15.571,66.386C11.737,66.386 8.614,63.263 8.614,59.429L8.614,15.57C8.614,11.736 11.737,8.613 15.571,8.613L59.43,8.613C63.264,8.613 66.387,11.736 66.387,15.57L66.387,21.113L58.614,21.113L58.614,16.333L16.333,16.386L16.386,58.663L21.113,58.633Z" fill="currentColor"/>
    </g>
</svg>
