<svg xmlns="http://www.w3.org/2000/svg" preserveAspectRatio="xMidYMid" width="1200" height="1200" viewBox="0 0 1200 1200"><defs><style>.cls-1 { fill: #d9411e; } .cls-2 { fill: #fff; fill-rule: evenodd; }</style></defs><path class="cls-1" d="M-1-3h1203v1203H-1z"/><path d="M1006.682 890.56c-19.95 28.867-59.637 36.12-88.513 16.1L656.69 725.77c-18.51-12.767-28.092-33.586-27.378-54.507-33.682 36.11-77.926 60.37-127.486 69.376-60.872 11.098-122.35-2.175-173.09-37.28-50.77-35.106-84.843-87.907-95.935-148.725-11.098-60.854 2.143-122.342 37.293-173.123C342.69 276.664 487.098 250.38 592.017 322.93c95.227 65.918 125.66 190.987 76.16 291.935 19.342-8.126 42.277-6.538 60.884 6.314l261.553 180.89c28.876 20.02 36.095 59.622 16.07 88.49zM619.034 484.274c-7.717-42.413-31.46-79.23-66.857-103.702-73.124-50.626-173.853-32.32-224.523 40.78-50.605 73.194-32.275 173.858 40.865 224.413 73.132 50.626 173.845 32.33 224.504-40.8 24.506-35.393 33.746-78.26 26.01-120.69z" class="cls-2"/></svg>