<svg width="100%" height="100%" viewBox="0 0 64 64" version="1.1" xmlns="http://www.w3.org/2000/svg" xmlns:xlink="http://www.w3.org/1999/xlink" xml:space="preserve" xmlns:serif="http://www.serif.com/" style="fill-rule:evenodd;clip-rule:evenodd;stroke-linejoin:round;stroke-miterlimit:2;">
    <path d="M32,16C40.82,16 48,23.18 48,32C48,40.82 40.82,48 32,48C23.18,48 16,40.82 16,32C16,23.18 23.18,16 32,16M32,12C20.95,12 12,20.95 12,32C12,43.05 20.95,52 32,52C43.05,52 52,43.05 52,32C52,20.95 43.05,12 32,12Z" fill="var(--icon-color-accent, #ff8700)"/>
    <g transform="matrix(1,0,0,1,13.227051,1)">
        <path d="M16.44,22.979L16.44,18.662L21.105,18.662L21.105,22.979L16.44,22.979ZM16.44,43L16.44,25.369L21.105,25.369L21.105,43L16.44,43Z" fill="currentColor" />
    </g>
</svg>
