<svg width="100%" height="100%" viewBox="0 0 64 64" version="1.1" xmlns="http://www.w3.org/2000/svg" xmlns:xlink="http://www.w3.org/1999/xlink" xml:space="preserve" xmlns:serif="http://www.serif.com/" style="fill-rule:evenodd;clip-rule:evenodd;stroke-linejoin:round;stroke-miterlimit:2;">
    <g transform="matrix(0,0.479985,-0.479985,0,55.998272,8.000768)" opacity=".4">
        <path d="M41.664,85.424L41.664,83.332L8.332,83.332L8.332,75L41.668,75L41.666,85.416L41.664,85.424ZM58.332,54.164L8.332,54.164L8.332,45.832L58.332,45.832L58.332,54.164ZM25,16.664L25,24.996L8.332,24.996L8.332,16.664L25,16.664Z" fill="currentColor"/>
    </g>
    <g transform="matrix(0,0.479985,-0.479985,0,55.998272,8.000768)">
        <path d="M41.667,16.664L91.664,16.668L91.664,25L41.665,25L41.667,16.664ZM75,45.836L91.668,45.836L91.668,54.168L75,54.168L75,45.836ZM58.332,83.336L58.332,75.004L91.664,75.004L91.664,83.336L58.332,83.336Z" fill="currentColor"/>
    </g>
    <g transform="matrix(0,0.479985,-0.479985,0,55.998272,8.000768)">
        <path d="M41.668,8.332L41.664,33.332L33.332,33.332L33.332,8.332L41.668,8.332ZM75,37.5L75,62.504L66.668,62.504L66.668,37.5L75,37.5ZM41.664,91.664L41.664,66.664L49.996,66.664L49.996,91.664L41.664,91.664Z" fill="var(--icon-color-accent, #ff8700)"/>
    </g>
</svg>