<svg width="100%" height="100%" viewBox="0 0 64 64" version="1.1" xmlns="http://www.w3.org/2000/svg" xmlns:xlink="http://www.w3.org/1999/xlink" xml:space="preserve" xmlns:serif="http://www.serif.com/" style="fill-rule:evenodd;clip-rule:evenodd;stroke-linejoin:round;stroke-miterlimit:2;">
    <g id="solr-for-typo3" transform="matrix(5.058478,0,0,4.915151,11.647927,12.223835)">
        <path id="Path" d="M0.403,2.391C0.225,2.788 0.11,3.219 0.07,3.673L0.685,4.781L0.403,2.391Z" fill="currentColor"/>
        <path id="path6248" d="M2.15,0.511C1.59,0.812 1.112,1.244 0.753,1.766L1.328,4.678L2.15,0.511Z" fill="currentColor"/>
        <path id="path6250" d="M4.82,0.124L2.55,5.078L6.761,1.156C6.233,0.645 5.565,0.279 4.82,0.124Z" fill="var(--icon-color-accent, #ff8700)" />
        <path id="path6252" d="M6.233,7.337C6.751,6.984 7.181,6.511 7.485,5.957L3.407,6.772L6.233,7.337Z" fill="currentColor"/>
        <path id="path6254" d="M4.346,8.006C4.785,7.969 5.203,7.861 5.59,7.692L3.306,7.419L4.346,8.006Z" fill="currentColor"/>
        <path id="Combined-Shape" d="M4.015,0.041C4.207,0.041 4.396,0.056 4.581,0.082L1.97,4.78L2.493,0.347C2.962,0.15 3.476,0.041 4.015,0.041ZM7.943,3.512C7.965,3.682 7.977,3.855 7.977,4.031C7.977,4.59 7.862,5.122 7.656,5.605L3.306,6.125L7.943,3.512Z" fill="currentColor"/>
        <path id="path6257" d="M6.904,1.302L3.01,5.541L7.904,3.268C7.759,2.516 7.405,1.839 6.904,1.302Z" fill="currentColor"/>
    </g>
</svg>
